<svg width="16" height="17" fill="none" xmlns="http://www.w3.org/2000/svg"><rect y=".648" width="16" height="16" rx="8" fill="#F92896"/><path d="M15.125 6.881c0-1.528-.935-2.187-3.013-2.256-2.276-.073-3.476.878-3.476 2.403 0 2.008 2.155 1.87 2.155 2.581 0 .22-.162.3-.484.256-.91-.134-2.264-1.585-2.264.496 0 .842.695 1.94 3.232 2.415 2.443.46 3.443-.752 3.443-2.065 0-2.098-2.54-1.545-2.54-2.452 0-.272.174-.443.638-.406 1.06.085 2.309 1.451 2.309-.972Z" fill="#FCC708"/><path d="M8.114 6.1c0-1.292-.56-1.877-2.528-1.621-1.248.162-2.314.723-3.078 1.56-.752.822-1.207 1.907-1.207 3.257 0 1.83 1.142 3.244 3.581 3.301 1.927.04 2.838-.955 2.838-2.012 0-2.15-.927-.927-2.02-.895-.72.025-1.025-.272-1.025-.727 0-.866.33-1.248 1.163-1.305 1.15-.082 2.276.886 2.276-1.557Z" fill="#fff"/></svg>