<svg width="24" height="16" viewBox="0 0 24 16" fill="none" xmlns="http://www.w3.org/2000/svg"><path d="M5.17563 5L8.35126 6.20395V6.60526H7.92784C7.92784 6.65961 7.90524 6.70664 7.86003 6.74635C7.81482 6.78606 7.76134 6.80592 7.69959 6.80592H2.65167C2.58992 6.80592 2.53644 6.78606 2.49123 6.74635C2.44602 6.70664 2.42342 6.65961 2.42342 6.60526H2V6.20395L5.17563 5ZM2.84683 7.00658H3.69367V9.41447H4.11709V7.00658H4.96392V9.41447H5.38734V7.00658H6.23417V9.41447H6.65759V7.00658H7.50442V9.41447H7.69959C7.76134 9.41447 7.81482 9.43433 7.86003 9.47404C7.90524 9.51376 7.92784 9.56079 7.92784 9.61513V9.81579H2.42342V9.61513C2.42342 9.56079 2.44602 9.51376 2.49123 9.47404C2.53644 9.43433 2.58992 9.41447 2.65167 9.41447H2.84683V7.00658ZM8.12301 10.0164C8.18476 10.0164 8.23824 10.0363 8.28344 10.076C8.32865 10.1157 8.35126 10.1628 8.35126 10.2171V10.6184H2V10.2171C2 10.1628 2.0226 10.1157 2.06781 10.076C2.11302 10.0363 2.1665 10.0164 2.22825 10.0164H8.12301Z" fill="#DCDCDC"/><path d="M10.9101 6.48296H10.3286L10.3255 6.12632H10.7969C10.8817 6.12632 10.9494 6.11702 11 6.09841C11.0507 6.07877 11.0874 6.05034 11.1101 6.01313C11.1339 5.97591 11.1458 5.9294 11.1458 5.87357C11.1458 5.80948 11.1339 5.7578 11.1101 5.71851C11.0864 5.67923 11.0486 5.6508 10.9969 5.63323C10.9463 5.61462 10.8807 5.60532 10.8 5.60532H10.5333V7.44278H9.98906V5.18511H10.8C10.9396 5.18511 11.0641 5.19803 11.1737 5.22387C11.2833 5.24868 11.3763 5.28693 11.4528 5.33862C11.5304 5.3903 11.5893 5.45543 11.6296 5.53399C11.6699 5.61152 11.6901 5.70301 11.6901 5.80845C11.6901 5.90045 11.6704 5.98677 11.6311 6.0674C11.5919 6.14803 11.5262 6.21367 11.4342 6.26433C11.3432 6.31394 11.2187 6.33979 11.0605 6.34186L10.9101 6.48296ZM10.8884 7.44278H10.1968L10.3829 7.02412H10.8884C10.9628 7.02412 11.0223 7.01275 11.0667 6.99001C11.1122 6.96623 11.1448 6.93522 11.1644 6.89697C11.1851 6.85769 11.1954 6.81427 11.1954 6.76672C11.1954 6.70883 11.1856 6.65869 11.166 6.61631C11.1474 6.57393 11.1174 6.54137 11.076 6.51862C11.0347 6.49485 10.9794 6.48296 10.9101 6.48296H10.4527L10.4558 6.12632H11.0032L11.1303 6.26898C11.2812 6.26277 11.4006 6.28397 11.4885 6.33255C11.5774 6.38114 11.641 6.44523 11.6792 6.52483C11.7175 6.60442 11.7366 6.68764 11.7366 6.77447C11.7366 6.9223 11.7045 7.04583 11.6404 7.14507C11.5774 7.2443 11.4828 7.31873 11.3567 7.36835C11.2306 7.41797 11.0745 7.44278 10.8884 7.44278Z" fill="#DCDCDC"/><path d="M12.8856 7.02102V6.32945C12.8856 6.2819 12.8789 6.24107 12.8654 6.20695C12.852 6.17284 12.8308 6.14648 12.8018 6.12787C12.7729 6.10823 12.7341 6.09841 12.6856 6.09841C12.6463 6.09841 12.6127 6.10513 12.5848 6.11857C12.5569 6.13201 12.5357 6.15217 12.5212 6.17904C12.5067 6.20592 12.4995 6.24003 12.4995 6.28138H11.9769C11.9769 6.20385 11.994 6.13201 12.0281 6.06585C12.0632 5.99866 12.1129 5.94025 12.177 5.89063C12.2421 5.84101 12.3196 5.80276 12.4095 5.77589C12.5005 5.74798 12.6018 5.73402 12.7135 5.73402C12.8468 5.73402 12.9657 5.75625 13.0701 5.8007C13.1755 5.84515 13.2588 5.91182 13.3197 6.00072C13.3807 6.08859 13.4112 6.1992 13.4112 6.33255V7.01947C13.4112 7.12904 13.4174 7.21226 13.4298 7.26911C13.4422 7.32494 13.4598 7.37404 13.4826 7.41642V7.44278H12.9585C12.9336 7.39109 12.915 7.32804 12.9026 7.25361C12.8913 7.17815 12.8856 7.10062 12.8856 7.02102ZM12.9492 6.41783L12.9523 6.69694H12.7212C12.6726 6.69694 12.6313 6.70366 12.5972 6.7171C12.5641 6.73054 12.5372 6.74915 12.5165 6.77292C12.4969 6.79566 12.4824 6.82151 12.4731 6.85045C12.4648 6.8794 12.4607 6.90989 12.4607 6.94194C12.4607 6.97295 12.468 7.00086 12.4824 7.02567C12.4979 7.04945 12.5186 7.06805 12.5444 7.08149C12.5703 7.09493 12.5992 7.10165 12.6313 7.10165C12.6892 7.10165 12.7383 7.0908 12.7786 7.06909C12.8199 7.04634 12.8515 7.01895 12.8732 6.9869C12.8949 6.95486 12.9057 6.92488 12.9057 6.89697L13.0205 7.11095C12.9998 7.1523 12.976 7.19417 12.9492 7.23655C12.9233 7.27893 12.8907 7.31822 12.8515 7.3544C12.8132 7.38954 12.7662 7.41849 12.7104 7.44123C12.6545 7.46294 12.5868 7.47379 12.5072 7.47379C12.4039 7.47379 12.3088 7.4526 12.2219 7.41022C12.1361 7.36784 12.0674 7.30891 12.0157 7.23345C11.964 7.15695 11.9382 7.06909 11.9382 6.96985C11.9382 6.88301 11.9537 6.80548 11.9847 6.73726C12.0167 6.66903 12.0648 6.61114 12.1289 6.56359C12.193 6.51604 12.2746 6.47986 12.3739 6.45505C12.4731 6.43024 12.5899 6.41783 12.7243 6.41783H12.9492Z" fill="#DCDCDC"/><path d="M14.2144 6.12322V7.44278H13.6919V5.76503H14.1819L14.2144 6.12322ZM14.1524 6.54653L14.0299 6.54964C14.0299 6.42145 14.0454 6.30723 14.0764 6.20695C14.1075 6.10565 14.1514 6.01985 14.2082 5.94955C14.2651 5.87926 14.3328 5.82602 14.4114 5.78984C14.491 5.75263 14.5794 5.73402 14.6765 5.73402C14.7541 5.73402 14.8249 5.74539 14.889 5.76813C14.9541 5.79088 15.0099 5.82757 15.0564 5.87823C15.104 5.92888 15.1402 5.99607 15.165 6.0798C15.1908 6.1625 15.2037 6.26484 15.2037 6.38682V7.44278H14.6781V6.38527C14.6781 6.31808 14.6688 6.26691 14.6502 6.23176C14.6316 6.19558 14.6047 6.17077 14.5695 6.15733C14.5344 6.1439 14.4915 6.13718 14.4408 6.13718C14.3871 6.13718 14.3416 6.14751 14.3044 6.16819C14.2672 6.18886 14.2372 6.21781 14.2144 6.25502C14.1927 6.2912 14.1767 6.3341 14.1664 6.38372C14.1571 6.43334 14.1524 6.48761 14.1524 6.54653Z" fill="#DCDCDC"/><path d="M16.0209 5.05951V7.44278H15.4983V5.05951H16.0209ZM17.0939 5.76503L16.3651 6.61941L15.9837 7.00086L15.7557 6.66903L16.0736 6.25502L16.4675 5.76503H17.0939ZM16.5341 7.44278L16.086 6.67834L16.4721 6.40388L17.1327 7.44278H16.5341Z" fill="#DCDCDC"/><path d="M11.0822 8.36074V10.6184H10.538V8.36074H11.0822ZM11.7614 8.36074V8.78095H9.87431V8.36074H11.7614Z" fill="#DCDCDC"/><path d="M12.3925 9.35622V10.6184H11.8699V8.94066H12.3584L12.3925 9.35622ZM12.8887 8.92826L12.8794 9.41359C12.8587 9.41153 12.8308 9.40894 12.7956 9.40584C12.7605 9.40274 12.731 9.40119 12.7073 9.40119C12.6463 9.40119 12.5935 9.40843 12.5491 9.4229C12.5057 9.43634 12.4695 9.45701 12.4406 9.48492C12.4126 9.5118 12.392 9.54591 12.3785 9.58726C12.3661 9.62861 12.3604 9.67668 12.3615 9.73147L12.2669 9.66944C12.2669 9.55677 12.2777 9.45443 12.2995 9.36242C12.3222 9.26939 12.3542 9.18927 12.3956 9.12208C12.4369 9.05385 12.4871 9.00165 12.546 8.96547C12.6049 8.92826 12.6711 8.90965 12.7445 8.90965C12.7703 8.90965 12.7956 8.9112 12.8205 8.9143C12.8463 8.9174 12.869 8.92205 12.8887 8.92826Z" fill="#DCDCDC"/><path d="M13.8935 10.1966V9.50508C13.8935 9.45753 13.8867 9.4167 13.8733 9.38258C13.8599 9.34847 13.8387 9.32211 13.8097 9.3035C13.7808 9.28386 13.742 9.27404 13.6934 9.27404C13.6542 9.27404 13.6206 9.28076 13.5927 9.2942C13.5647 9.30764 13.5436 9.32779 13.5291 9.35467C13.5146 9.38155 13.5074 9.41566 13.5074 9.45701H12.9848C12.9848 9.37948 13.0019 9.30764 13.036 9.24148C13.0711 9.17428 13.1208 9.11588 13.1848 9.06626C13.25 9.01664 13.3275 8.97839 13.4174 8.95152C13.5084 8.9236 13.6097 8.90965 13.7214 8.90965C13.8547 8.90965 13.9736 8.93187 14.078 8.97632C14.1834 9.02078 14.2666 9.08745 14.3276 9.17635C14.3886 9.26422 14.4191 9.37483 14.4191 9.50818V10.1951C14.4191 10.3047 14.4253 10.3879 14.4377 10.4447C14.4501 10.5006 14.4677 10.5497 14.4904 10.5921V10.6184H13.9663C13.9415 10.5667 13.9229 10.5037 13.9105 10.4292C13.8992 10.3538 13.8935 10.2762 13.8935 10.1966ZM13.957 9.59346L13.9601 9.87257H13.7291C13.6805 9.87257 13.6392 9.87929 13.6051 9.89273C13.572 9.90617 13.5451 9.92478 13.5244 9.94855C13.5048 9.97129 13.4903 9.99714 13.481 10.0261C13.4727 10.055 13.4686 10.0855 13.4686 10.1176C13.4686 10.1486 13.4758 10.1765 13.4903 10.2013C13.5058 10.2251 13.5265 10.2437 13.5523 10.2571C13.5782 10.2706 13.6071 10.2773 13.6392 10.2773C13.6971 10.2773 13.7462 10.2664 13.7865 10.2447C13.8278 10.222 13.8594 10.1946 13.8811 10.1625C13.9028 10.1305 13.9136 10.1005 13.9136 10.0726L14.0284 10.2866C14.0077 10.3279 13.9839 10.3698 13.957 10.4122C13.9312 10.4546 13.8986 10.4938 13.8594 10.53C13.8211 10.5652 13.7741 10.5941 13.7183 10.6169C13.6624 10.6386 13.5947 10.6494 13.5151 10.6494C13.4117 10.6494 13.3166 10.6282 13.2298 10.5858C13.144 10.5435 13.0753 10.4845 13.0236 10.4091C12.9719 10.3326 12.9461 10.2447 12.9461 10.1455C12.9461 10.0586 12.9616 9.98111 12.9926 9.91289C13.0246 9.84466 13.0727 9.78677 13.1368 9.73922C13.2009 9.69167 13.2825 9.65549 13.3818 9.63068C13.481 9.60587 13.5978 9.59346 13.7322 9.59346H13.957Z" fill="#DCDCDC"/><path d="M15.2223 9.29885V10.6184H14.6998V8.94066H15.1898L15.2223 9.29885ZM15.1603 9.72216L15.0378 9.72526C15.0378 9.59708 15.0533 9.48285 15.0843 9.38258C15.1153 9.28128 15.1593 9.19548 15.2161 9.12518C15.273 9.05489 15.3407 9.00165 15.4193 8.96547C15.4989 8.92826 15.5872 8.90965 15.6844 8.90965C15.7619 8.90965 15.8328 8.92102 15.8968 8.94376C15.962 8.9665 16.0178 9.0032 16.0643 9.05385C16.1119 9.10451 16.148 9.1717 16.1729 9.25543C16.1987 9.33813 16.2116 9.44047 16.2116 9.56245V10.6184H15.686V9.5609C15.686 9.49371 15.6767 9.44254 15.6581 9.40739C15.6394 9.37121 15.6126 9.3464 15.5774 9.33296C15.5423 9.31952 15.4994 9.31281 15.4487 9.31281C15.395 9.31281 15.3495 9.32314 15.3123 9.34382C15.2751 9.36449 15.2451 9.39344 15.2223 9.43065C15.2006 9.46683 15.1846 9.50973 15.1743 9.55935C15.165 9.60897 15.1603 9.66324 15.1603 9.72216Z" fill="#DCDCDC"/><path d="M17.3808 10.147C17.3808 10.1181 17.3709 10.0933 17.3513 10.0726C17.3327 10.0509 17.2996 10.0312 17.2521 10.0137C17.2045 9.99507 17.1378 9.97646 17.052 9.95785C16.9704 9.94028 16.8934 9.91702 16.821 9.88808C16.7497 9.85913 16.6871 9.82399 16.6334 9.78264C16.5796 9.74129 16.5372 9.69218 16.5062 9.63533C16.4763 9.57847 16.4613 9.51335 16.4613 9.43995C16.4613 9.36863 16.4763 9.30143 16.5062 9.23838C16.5372 9.17428 16.5822 9.11795 16.6411 9.06936C16.7011 9.01974 16.774 8.98098 16.8598 8.95307C16.9456 8.92412 17.0433 8.90965 17.1528 8.90965C17.3038 8.90965 17.434 8.93291 17.5436 8.97943C17.6532 9.02491 17.7374 9.089 17.7963 9.1717C17.8563 9.25337 17.8863 9.34795 17.8863 9.45546H17.3637C17.3637 9.41308 17.3565 9.3769 17.342 9.34692C17.3286 9.31694 17.3063 9.2942 17.2753 9.27869C17.2443 9.26215 17.203 9.25388 17.1513 9.25388C17.1151 9.25388 17.082 9.2606 17.052 9.27404C17.0231 9.28748 16.9998 9.30609 16.9823 9.32986C16.9647 9.35364 16.9559 9.38155 16.9559 9.41359C16.9559 9.43634 16.9611 9.45701 16.9714 9.47562C16.9828 9.49319 16.9998 9.50973 17.0226 9.52524C17.0453 9.53971 17.0743 9.55315 17.1094 9.56555C17.1446 9.57692 17.1869 9.58726 17.2366 9.59656C17.3492 9.61724 17.4547 9.6467 17.5529 9.68495C17.6511 9.7232 17.7307 9.77747 17.7917 9.84776C17.8537 9.91806 17.8847 10.0126 17.8847 10.1315C17.8847 10.206 17.8677 10.2747 17.8335 10.3378C17.7994 10.3998 17.7503 10.4546 17.6862 10.5021C17.6221 10.5486 17.5451 10.5848 17.4552 10.6107C17.3653 10.6365 17.264 10.6494 17.1513 10.6494C16.9911 10.6494 16.8556 10.621 16.745 10.5641C16.6344 10.5062 16.5507 10.4339 16.4938 10.3471C16.438 10.2592 16.4101 10.1703 16.4101 10.0804H16.897C16.899 10.132 16.9115 10.1744 16.9342 10.2075C16.958 10.2406 16.9895 10.2649 17.0288 10.2804C17.0681 10.2959 17.1135 10.3036 17.1652 10.3036C17.2128 10.3036 17.2521 10.2969 17.2831 10.2835C17.3151 10.27 17.3394 10.252 17.356 10.2292C17.3725 10.2054 17.3808 10.178 17.3808 10.147Z" fill="#DCDCDC"/><path d="M18.7701 10.6184H18.2445V8.80421C18.2445 8.67396 18.2708 8.56438 18.3235 8.47548C18.3763 8.38658 18.4507 8.31939 18.5468 8.2739C18.643 8.22739 18.7567 8.20413 18.888 8.20413C18.9334 8.20413 18.9763 8.20723 19.0167 8.21343C19.057 8.21963 19.0962 8.22739 19.1345 8.23669L19.136 8.62124C19.1174 8.61607 19.0983 8.61245 19.0787 8.61038C19.059 8.60832 19.0347 8.60728 19.0058 8.60728C18.9551 8.60728 18.9122 8.61504 18.8771 8.63054C18.842 8.64501 18.8151 8.66724 18.7965 8.69722C18.7789 8.72616 18.7701 8.76183 18.7701 8.80421V10.6184ZM19.0957 8.94066V9.3035H18.0026V8.94066H19.0957Z" fill="#DCDCDC"/><path d="M20.0587 10.6494C19.9222 10.6494 19.8002 10.6282 19.6927 10.5858C19.5852 10.5424 19.4942 10.483 19.4198 10.4075C19.3464 10.3321 19.2901 10.2452 19.2508 10.147C19.2125 10.0488 19.1934 9.94493 19.1934 9.83536V9.77643C19.1934 9.65342 19.2105 9.53971 19.2446 9.4353C19.2787 9.32986 19.3294 9.23786 19.3965 9.1593C19.4637 9.08073 19.548 9.01974 19.6493 8.97632C19.7506 8.93187 19.8684 8.90965 20.0028 8.90965C20.1217 8.90965 20.2282 8.92877 20.3223 8.96702C20.4163 9.00527 20.4959 9.06006 20.561 9.13138C20.6272 9.20271 20.6773 9.28903 20.7115 9.39034C20.7466 9.49164 20.7642 9.60535 20.7642 9.73147V9.9439H19.3934V9.61672H20.254V9.57641C20.2551 9.52059 20.2452 9.47303 20.2246 9.43375C20.2049 9.39447 20.176 9.36449 20.1377 9.34382C20.0995 9.32314 20.053 9.31281 19.9982 9.31281C19.9413 9.31281 19.8943 9.32521 19.8571 9.35002C19.8209 9.37483 19.7925 9.40894 19.7718 9.45236C19.7522 9.49474 19.7382 9.54384 19.7299 9.59967C19.7217 9.65549 19.7175 9.71441 19.7175 9.77643V9.83536C19.7175 9.89738 19.7258 9.95372 19.7423 10.0044C19.7599 10.055 19.7847 10.0984 19.8168 10.1346C19.8498 10.1698 19.8891 10.1972 19.9346 10.2168C19.9811 10.2364 20.0338 10.2463 20.0928 10.2463C20.1641 10.2463 20.2344 10.2328 20.3036 10.206C20.3729 10.1791 20.4323 10.1346 20.482 10.0726L20.7192 10.3548C20.6851 10.4034 20.6365 10.4504 20.5735 10.4959C20.5114 10.5414 20.437 10.5786 20.3502 10.6076C20.2633 10.6355 20.1662 10.6494 20.0587 10.6494Z" fill="#DCDCDC"/><path d="M21.5038 9.35622V10.6184H20.9813V8.94066H21.4697L21.5038 9.35622ZM22 8.92826L21.9907 9.41359C21.97 9.41153 21.9421 9.40894 21.907 9.40584C21.8718 9.40274 21.8424 9.40119 21.8186 9.40119C21.7576 9.40119 21.7049 9.40843 21.6604 9.4229C21.617 9.43634 21.5808 9.45701 21.5519 9.48492C21.524 9.5118 21.5033 9.54591 21.4899 9.58726C21.4775 9.62861 21.4718 9.67668 21.4728 9.73147L21.3782 9.66944C21.3782 9.55677 21.3891 9.45443 21.4108 9.36242C21.4335 9.26939 21.4656 9.18927 21.5069 9.12208C21.5483 9.05385 21.5984 9.00165 21.6573 8.96547C21.7162 8.92826 21.7824 8.90965 21.8558 8.90965C21.8816 8.90965 21.907 8.9112 21.9318 8.9143C21.9576 8.9174 21.9804 8.92205 22 8.92826Z" fill="#DCDCDC"/></svg>