<svg width="24" height="16" viewBox="0 0 24 16" fill="none" xmlns="http://www.w3.org/2000/svg">
<g clip-path="url(#clip0_71_1242)">
<path d="M13.6506 6.24595C13.646 6.14628 13.594 6.08623 13.4853 6.08559C13.2887 6.08431 13.0921 6.08559 12.8601 6.08559V6.42995C12.8601 6.84524 12.8601 7.25988 12.8601 7.67516C12.8601 7.91283 12.8081 8.139 12.6841 8.34664C12.5068 8.64309 12.2342 8.77726 11.8816 8.76001C11.5383 8.7434 11.2876 8.58687 11.175 8.27125C11.119 8.11345 11.0783 7.94286 11.0737 7.77675C11.0603 7.29821 11.0703 6.81904 11.0677 6.34051C11.0677 6.26001 11.0497 6.18015 11.0403 6.10348H10.3711C10.3518 6.14053 10.3338 6.15906 10.3338 6.17759C10.3324 6.84779 10.3018 7.51991 10.3424 8.18756C10.3784 8.77662 10.7504 9.28454 11.4056 9.42574C12.4235 9.64041 12.8048 9.12673 12.8481 9.10437C12.8541 9.68257 12.6161 10.0774 12.1835 10.2397C11.9782 10.317 11.7749 10.2972 11.5643 10.2576C11.2336 10.1962 11.0217 9.99244 10.8357 9.72666C10.6231 9.8423 10.4224 9.95091 10.2178 10.0627C10.4151 10.5029 10.7497 10.7617 11.1936 10.8971C12.1582 11.1929 13.302 10.8837 13.578 9.62316C13.63 9.38613 13.6493 9.13887 13.652 8.89609C13.6606 8.08725 13.6553 7.27841 13.6553 6.46957C13.6553 6.39482 13.6553 6.3207 13.652 6.24595H13.6506Z" fill="#2B43E9"/>
<path d="M3.59647 6.02171C2.67259 6.13862 1.99668 6.8248 2.00001 7.73075C2.00268 8.45398 2.00001 9.17721 2.00135 9.90044C2.00135 9.98222 2.01468 10.064 2.02268 10.1554H2.78457V9.14846C3.39649 9.52158 3.88576 9.57908 4.40969 9.42063C5.34623 9.1376 5.79551 8.28276 5.55887 7.29886C5.3569 6.45743 4.48901 5.90798 3.59647 6.02171ZM3.82977 8.78557C3.25851 8.78301 2.74058 8.2949 2.79257 7.771C2.78991 7.19727 3.23985 6.71555 3.8191 6.73727C4.42302 6.76027 4.8343 7.1468 4.85163 7.7742C4.8663 8.32173 4.34503 8.78749 3.82977 8.78493V8.78557Z" fill="#2B43E9"/>
<path d="M21.193 6.30602C20.5937 5.93929 19.9578 5.89457 19.3319 6.2153C18.708 6.53474 18.3794 7.04714 18.3873 7.74481C18.396 8.45654 18.3887 9.16891 18.39 9.88064C18.39 9.972 18.404 10.0627 18.4133 10.1777C18.6673 10.1541 18.8959 10.2186 19.1432 10.1253V9.14527C19.2532 9.20852 19.3266 9.25261 19.4019 9.29477C19.6758 9.44747 19.9751 9.54011 20.2878 9.51839C21.0483 9.46536 21.6003 9.12163 21.8789 8.41501C22.1822 7.64578 21.8949 6.73663 21.1916 6.30666L21.193 6.30602ZM21.205 7.79401C21.1983 8.38946 20.7724 8.75682 20.1438 8.77982C19.6565 8.79771 19.1126 8.31279 19.1452 7.75056C19.1819 7.12189 19.5885 6.75261 20.1724 6.74111C20.8764 6.72769 21.261 7.32059 21.205 7.79401Z" fill="#2B43E9"/>
<path d="M9.71643 7.35827C9.52912 6.70787 9.09584 6.18014 8.25929 6.03447C7.53739 5.90861 6.92547 6.15714 6.47419 6.71873C5.96426 7.35252 6.03092 8.31278 6.51819 8.88587C6.94946 9.39315 7.50872 9.6091 8.1993 9.47046C8.50526 9.40912 8.74589 9.25387 8.96653 9.03217C8.98519 9.08456 9.00452 9.11267 9.00252 9.13951C8.96986 9.59696 9.10318 9.51518 9.44447 9.51965C9.53045 9.52093 9.61644 9.50943 9.7151 9.5024C9.72443 9.43596 9.73709 9.38548 9.73709 9.33501C9.73709 8.75042 9.73709 8.16519 9.73509 7.5806C9.73509 7.50649 9.73643 7.42918 9.71643 7.3589V7.35827ZM8.94453 7.78313C8.9392 8.38689 8.52659 8.77725 7.902 8.76895C7.31075 8.76128 6.9448 8.3345 6.91214 7.71924C6.88414 7.18065 7.47939 6.70659 7.94866 6.72256C8.42527 6.73918 9.00719 7.16085 8.94453 7.78313Z" fill="#2B43E9"/>
<path d="M15.6268 6.08882C15.0622 6.21532 14.6489 6.53988 14.3983 7.12447C14.5956 7.02863 14.7363 6.96091 14.8856 6.88872C14.9882 7.02352 15.0622 7.20561 15.1502 7.32125C15.2229 7.24394 15.5055 6.68044 16.1834 6.80438C16.7553 6.89191 17.2059 7.40686 17.1573 7.91798C17.118 8.33134 16.6827 8.82521 16.2881 8.89421C15.1162 9.0993 14.9536 8.07131 14.9362 7.92309L15.2715 8.00359L14.8023 7.11233L13.9497 7.68478L14.237 7.75378C14.2523 9.2686 15.4728 9.70625 16.2467 9.63788C17.2466 9.54908 17.8552 8.64823 17.8532 7.89498C17.9132 6.71877 16.826 5.81856 15.6268 6.08754V6.08882Z" fill="#2B43E9"/>
</g>
<defs>
<clipPath id="clip0_71_1242">
<rect width="20" height="5" fill="white" transform="translate(2 6)"/>
</clipPath>
</defs>
</svg>
