<svg xmlns="http://www.w3.org/2000/svg" width="60" height="33" fill="none"><path fill="#FEC3F2" fill-rule="evenodd" d="M44.45 2.552c1.112-.573 2.427-.719 3.702-.583 1.197.128 2.257.554 3.11 1.265a5.375 5.375 0 0 1 3.167-.503c4.444.61 6.471 4.178 3.818 8.041-.788 1.148-1.666 1.936-2.635 2.818-.318 1.497-.985 2.877-2.058 3.914.124.52.175 1.061.175 1.604a6.794 6.794 0 0 1-.893 3.417c.412.752.594 1.639.594 2.537 0 3.22-2.003 5.787-5.232 6.274-1.39.208-2.783.4-4.178.572-.926.114-1.848.02-2.676-.319-.95.56-2.062.816-3.192.908-.913.075-1.792-.05-2.577-.403-.837.472-1.807.69-2.82.727-.888.032-1.773-.108-2.558-.467-.845.4-1.795.552-2.77.534-2.164-.043-3.97-1.055-4.75-2.823-.12.02-.24.037-.361.05-.944 1.977-2.822 2.449-5.343 2.188-1.173-.122-2.278-.507-3.143-1.215-1.432.517-3.041.556-4.523.277-3.31-.62-6.963-2.515-6.963-6.382 0-1.142.282-2.325.946-3.219a6.408 6.408 0 0 1-.138-1.332c0-.931.175-1.814.526-2.61-1.952-1.355-3.06-3.542-3.06-6.168 0-2.456.802-4.751 2.467-6.573 1.602-1.75 3.76-2.817 6.104-3.122 1.68-.218 3.424-.092 4.758.731 1.27-1.05 2.87-1.54 4.712-1.658 1.761-.112 3.3.304 4.518 1.232 1.01-.94 2.408-1.39 4.126-1.374.93.01 1.815.18 2.592.58.842-.405 1.802-.554 2.779-.529.938.026 1.862.228 2.66.672 1.232-.44 2.6-.458 3.907-.385.27.016.537.037.806.057 1.548.114 3.09.474 4.403 1.267Z" clip-rule="evenodd"/><path fill="#F92896" fill-rule="evenodd" d="M44.405 4.995c.702-.843 1.91-1.245 3.502-1.075 1.49.156 2.445.913 2.998 1.974.81-.942 1.92-1.4 3.207-1.224 3.088.425 4.325 2.43 2.511 5.067-.841 1.222-1.796 1.968-2.82 2.915-.305 2.208-1.365 3.559-2.626 4.222.382.5.607 1.213.607 2.222 0 1.478-.577 2.594-1.423 3.54.793.424 1.126 1.333 1.126 2.383 0 2.277-1.321 4.034-3.615 4.38-1.368.206-2.74.393-4.115.561-1.111.137-1.99-.158-2.589-.76-.585.721-1.551 1.206-3.19 1.339-1.12.092-1.943-.248-2.508-.884-.536.694-1.397 1.15-2.788 1.2-1.06.04-1.93-.25-2.48-.865-.573.596-1.428.957-2.728.932-1.89-.037-3.306-1.03-3.306-3.004 0-.159.007-.32.021-.485-.814.547-1.847.84-3.107.778l-.118-.008c-.354 1.773-1.117 2.42-3.759 2.146-1.338-.137-2.358-.69-2.85-1.692-1.19.877-2.932 1.104-4.64.783-2.321-.436-5.409-1.68-5.409-4.5 0-1.155.38-2.251 1.256-2.625-.301-.559-.45-1.196-.45-1.901 0-1.508.599-2.585 1.526-3.306-2.424-.688-4.054-2.562-4.054-5.426 0-1.972.624-3.802 1.967-5.266 1.297-1.413 3.044-2.265 4.94-2.512 2.108-.273 3.871.078 4.546 1.718.845-1.483 2.182-2.464 4.775-2.629 2.471-.156 3.86.984 4.643 2.645.401-1.62 1.325-2.805 3.842-2.781 1.218.011 2.033.377 2.573 1.045.538-.64 1.393-1.032 2.75-.995 1.067.028 1.942.354 2.484 1.003 1.09-.797 2.69-.792 4.011-.72.257.014.513.036.77.054 1.976.146 3.496.713 4.52 1.751Z" clip-rule="evenodd"/><path fill="#fff" d="M13.094 7.347c0-1.754-.763-2.55-3.436-2.202-1.698.221-3.146.985-4.183 2.116-1.023 1.115-1.64 2.59-1.64 4.424 0 2.477 1.55 4.4 4.867 4.476 2.616.058 3.856-1.293 3.856-2.73 0-2.92-1.258-1.261-2.749-1.212-.972.031-1.389-.371-1.389-.987 0-1.18.448-1.693 1.583-1.774 1.56-.107 3.091 1.204 3.091-2.111Zm2.086 12.87c0-2.075-1.27-2.974-4.095-3.064-3.092-.1-4.721 1.192-4.721 3.259 0 2.723 2.93 2.537 2.93 3.504 0 .295-.224.41-.66.346-1.237-.18-3.076-2.15-3.076.674 0 1.14.945 2.631 4.392 3.276 3.318.621 4.678-1.018 4.678-2.803 0-2.847-3.455-2.096-3.455-3.325 0-.37.24-.604.868-.553 1.446.12 3.139 1.971 3.139-1.315Zm5.298 1.19s.088-.032.207-.029c.327.012.568.2.568.985 0 1.903-.568 2.387-.879 2.378-.152-.006-.24-.047-.24-.047.115-1.094.228-2.188.344-3.286ZM15.74 22.59c-.145 1.365-.297 2.725-.436 4.08a4.295 4.295 0 0 0-.026.436c0 1.194.607 1.85 2.06 2 2.603.27 2.382-.513 2.581-2.354 0 0 .36.167 1.229.212 2.537.127 4.195-1.647 4.195-5.037 0-2.316-1-4.354-4.48-4.412-4.878-.08-4.624.398-5.123 5.075Zm9.794 3.973c-.056.57-.12 1.053-.12 1.348 0 .965.506 1.729 2.087 1.76 2.752.053 2.53-2.217 2.82-5.175.146-1.482.302-2.965.453-4.45.015-.144.062-.611.062-.885 0-1.06-.524-1.598-2.06-1.598-2.721 0-2.555 2.044-2.83 4.865a1349.3 1349.3 0 0 1-.412 4.135Zm10.268.764c.194 1.254.702 2.078 2.076 1.965 3.504-.285 2.858-2.616 3.138-5.462.133-1.365.282-2.733.42-4.098.012-.125.057-.547.057-.797 0-1.041-.565-1.489-1.866-1.467-3.084.054-2.217 2.957-2.493 5.887-.215-1.24-.42-2.486-.63-3.739-.207-1.236-.536-2.076-2.181-2.074-3.434.002-3.082 6.056-3.45 9.773-.027.276-.062.63-.062.76 0 1.055.526 1.578 1.827 1.532 3.193-.118 2.293-3.265 2.555-6.246.202 1.325.403 2.65.609 3.966Zm11.886.836c1.596-.24 2.555-1.397 2.555-3.15 0-2.142-1.417-1.232-3.436-1.023 1.925-1.422 3.731-2.65 3.731-4.895 0-3.165-3.21-1.82-6.286-1.743-1.644.041-2.361 1.169-2.361 2.933 0 2.44 1.525 1.533 3.734 1.392-1.78 1.516-4.12 2.647-4.12 4.962 0 1.573.792 2.24 2.101 2.08 1.36-.165 2.718-.351 4.082-.556ZM20.926 16.18c2.475.022 2.299-1.164 2.299-3.264 0-3.905 0-8.947-4.33-8.673-3.866.244-4.157 2.444-5.23 6.442-.409 1.528-.733 2.837-.733 3.669 0 .72.285 1.73 2.06 1.764 1.872.035 2.332-.428 2.586-2.206l1.166-.006v.505c0 1.299.536 1.756 2.182 1.77Zm-2.677-7.466s.09-.06.241-.066c.239-.01.358.078.358.601 0 .487-.063 1.409-.088 2.892l-.957.015c.145-1.145.296-2.29.446-3.442Zm10.518 5.339c.194 1.28.703 2.157 2.076 2.157 3.55-.002 2.868-2.571 3.138-5.38.135-1.407.278-2.815.421-4.222.014-.132.057-.568.057-.826 0-1.082-.568-1.592-1.867-1.625-3.095-.08-2.224 3.035-2.492 5.932-.213-1.281-.42-2.564-.63-3.852-.208-1.264-.538-2.113-2.182-2.13-2.997-.026-2.7 2.044-3.013 5.27-.144 1.498-.287 3-.436 4.498-.027.28-.059.63-.059.756 0 1.055.523 1.569 1.824 1.573 3.218.008 2.293-3.18 2.555-6.195.201 1.346.403 2.694.608 4.044ZM39.544 8.31s.088-.031.281-.026c.327.014.6.243.6 1.24 0 1.388-.241 3.097-.99 3.085-.267-.004-.343-.076-.343-.076l.452-4.223Zm-5.038 4.948a6.687 6.687 0 0 0-.041.682c0 .975.594 2.256 4.376 2.225 2.05-.016 3.516-.752 4.47-1.93.95-1.17 1.4-2.8 1.4-4.677 0-3.442-1.675-4.827-4.917-5.067-.25-.018-.5-.037-.745-.051-4.543-.25-3.823 1.307-4.158 4.849-.125 1.322-.258 2.645-.385 3.969Zm18.109-1.192c.282-.341 7.01-5.378 1.328-6.157-.896-.123-1.696.184-2.316 1.094-.311.457-.583 1.063-.808 1.832-.718 2.462-.534 4.76-.534.006 0-2.393-.943-3.512-2.508-3.678-5.263-.557-1.771 6.063-.615 6.854 0 0-.234 1.378-.313 2.061-.3 2.66 5.308 3.478 5.766-2.012Z"/><path fill="#FCC708" d="M15.179 20.216c0-2.074-1.27-2.973-4.095-3.063-3.092-.1-4.721 1.192-4.721 3.259 0 2.723 2.93 2.537 2.93 3.504 0 .295-.224.41-.66.346-1.237-.18-3.076-2.15-3.076.674 0 1.14.945 2.631 4.392 3.276 3.318.621 4.678-1.018 4.678-2.803 0-2.847-3.455-2.096-3.455-3.325 0-.37.24-.604.868-.553 1.446.12 3.139 1.971 3.139-1.315Zm5.298 1.192s.088-.033.207-.03c.327.012.567.2.567.985 0 1.903-.567 2.387-.878 2.378-.152-.006-.24-.047-.24-.047.115-1.094.228-2.188.344-3.286ZM15.74 22.59c-.145 1.365-.297 2.725-.436 4.08a4.297 4.297 0 0 0-.026.436c0 1.194.607 1.85 2.06 2 2.603.27 2.382-.513 2.581-2.353 0 0 .36.166 1.229.21 2.537.127 4.195-1.646 4.195-5.036 0-2.316-1-4.354-4.48-4.412-4.878-.08-4.624.398-5.123 5.075Zm9.794 3.973c-.056.57-.12 1.053-.12 1.348 0 .965.506 1.729 2.087 1.76 2.752.053 2.53-2.217 2.82-5.175.146-1.482.302-2.965.453-4.45.015-.144.062-.611.062-.885 0-1.06-.524-1.598-2.06-1.598-2.721 0-2.555 2.044-2.83 4.865-.136 1.38-.273 2.758-.412 4.135Zm10.268.764c.194 1.254.702 2.078 2.076 1.965 3.504-.285 2.858-2.616 3.138-5.462.133-1.365.282-2.733.42-4.098.012-.125.057-.547.057-.797 0-1.041-.565-1.489-1.866-1.467-3.084.054-2.217 2.957-2.493 5.887-.215-1.24-.42-2.486-.63-3.738-.207-1.237-.536-2.077-2.181-2.075-3.434.002-3.082 6.056-3.45 9.773-.027.276-.062.63-.062.76 0 1.055.526 1.579 1.827 1.532 3.193-.118 2.293-3.265 2.555-6.246.202 1.325.404 2.65.609 3.966Zm11.886.836c1.596-.24 2.555-1.397 2.555-3.149 0-2.143-1.417-1.233-3.436-1.024 1.925-1.422 3.731-2.65 3.731-4.895 0-3.165-3.21-1.82-6.286-1.742-1.644.04-2.361 1.168-2.361 2.932 0 2.44 1.526 1.533 3.734 1.392-1.78 1.516-4.12 2.647-4.12 4.962 0 1.573.792 2.24 2.101 2.08 1.36-.165 2.718-.35 4.081-.556Z"/><path fill="#AF9EFF" fill-rule="evenodd" d="M6.88 6.682c-.436.278-.84.613-1.198 1.007-1.034 1.135-1.489 2.541-1.489 4.068 0 2.63 1.806 3.875 4.306 3.93.957.024 2.166-.21 2.812-.932-.642.325-1.447.438-2.125.422-2.5-.055-4.307-1.3-4.307-3.93 0-1.527.456-2.933 1.49-4.068.161-.177.332-.343.512-.497ZM8.78 9.147c.27-.116.593-.19.97-.215 1.46-.102 2.207.64 2.458-.34-.408-.036-.986-.225-1.773-.17-.768.053-1.312.297-1.655.725Zm7.846-3.767c-1.76.981-1.974 3.127-2.61 5.518-.265.993-.716 2.536-.716 3.55 0 .944.637 1.182 1.497 1.198 1.01.02 1.467-.075 1.722-.574-.26.06-.596.071-1.036.064-.858-.016-1.497-.255-1.497-1.198 0-1.015.453-2.557.717-3.55.54-2.037.778-3.895 1.923-5.008Zm.86 8.042 1.052-.008.582-.002v1.093c0 1.145.556 1.194 1.61 1.204.956.008 1.395-.201 1.593-.6-.236.062-.531.094-.907.09-1.054-.01-1.61-.06-1.61-1.204v-1.093l-.582.002c-.388.004-.778.005-1.166.008l-.5.003-.07.497-.002.01Zm.68-5.302.098-.007c.74-.03.96.54.96 1.188 0 .965-.07 1.956-.088 2.927l-.002.063.12-.002.557-.01.01-.561c.018-.972.088-1.962.088-2.928 0-.648-.217-1.215-.96-1.188-.209.008-.471.083-.624.239l-.14.14-.019.14Zm13.459-3.297c-.547.155-.825.56-.96 1.31-.222 1.255-.059 2.756-.179 4.068l-.003.021.642-.023.047-.508c.12-1.312-.043-2.814.18-4.068.059-.331.147-.595.273-.8Zm-2.28 5.453-.006-.034-.21-1.282-1.009.031-.04.49.381-.013.077.512c.203 1.36.405 2.719.609 4.078.147.967.425 1.68 1.508 1.68 1.024-.002 1.626-.275 1.982-.727-.33.14-.754.215-1.297.217-1.08 0-1.36-.713-1.506-1.68l-.49-3.272Zm-3.328-5.45c-.396.137-.705.407-.893.917-.353.961-.367 2.69-.469 3.74-.145 1.514-.29 3.027-.438 4.54-.022.22-.053.484-.053.705 0 .86.442 1.002 1.245 1.005.753.001 1.223-.176 1.51-.615-.227.073-.499.104-.824.104-.803-.002-1.246-.144-1.246-1.005 0-.22.032-.484.055-.705.149-1.513.292-3.026.437-4.539.102-1.05.116-2.78.468-3.739a1.76 1.76 0 0 1 .208-.407Zm8.88 8.572c-.019.21-.039.42-.039.632 0 1.645 2.717 1.673 3.798 1.663 1.336-.012 2.598-.353 3.565-1.235-.846.508-1.839.717-2.877.725-1.081.01-3.8-.018-3.8-1.663 0-.213.02-.421.04-.632.127-1.334.262-2.67.385-4.003.17-1.818.016-3.008.464-3.684-1.277.463-.922 1.769-1.15 4.194-.125 1.334-.258 2.67-.385 4.003Zm4.582-5.648c.067-.006.131-.006.19-.002.98.038 1.156 1.036 1.156 1.83 0 .75-.057 2.325-.623 3.154 1.214-.287 1.308-2.679 1.308-3.664 0-.794-.176-1.793-1.155-1.83-.173-.008-.404.006-.563.085l-.282.143-.03.284Zm8.086 4.423c-.098.69-.233 1.369-.31 2.064-.154 1.38 2.094 2.086 3.518.643-1.36.707-2.963.02-2.832-1.153.078-.695.211-1.375.31-2.063l.05-.358-.295-.205c-.74-.51-1.67-2.683-1.863-3.607-.159-.745-.134-1.296.086-1.67-.791.244-1.036.945-.774 2.18.196.924 1.123 3.097 1.865 3.607l.296.205-.051.357Zm5.255-5.575c-.345.136-.633.398-.88.764-.336.496-.566 1.111-.732 1.684-.26.9-.38 1.74-.519 2.656l-.008.045c.296.046.63-.14.694-.555.139-.916.26-1.756.52-2.656.165-.573.394-1.188.731-1.684.063-.09.126-.176.194-.254Z" clip-rule="evenodd"/><path fill="#C92700" fill-rule="evenodd" d="M8.031 18.36c-.767.402-1.306 1.088-1.306 2.197 0 2.452 2.934 1.928 2.934 3.534 0 .155-.027.291-.076.408.43-.087.762-.375.762-.918 0-1.606-2.933-1.082-2.933-3.532 0-.737.236-1.285.62-1.689Zm-1.418 5.98c-.266-.11-.474-.182-.542-.16-.135.118-.153.78-.153.941 0 1.738 2.63 2.486 3.925 2.73 1.28.243 2.735.15 3.489-.71-.788.376-1.845.382-2.803.2-1.295-.244-3.924-.992-3.924-2.73 0-.051.002-.154.008-.272Zm4.59-3.178c.207-.058.438-.075.675-.056 1.567.128 2.304 1.354 2.476.065-.403-.155-.987-.508-1.79-.575-.576-.047-1.119.122-1.361.566Zm4.908 1.652c-.145 1.371-.298 2.742-.437 4.114a3.51 3.51 0 0 0-.023.38c0 1.042.57 1.337 1.543 1.438 1.303.136 1.658.073 1.795-.455-.26.02-.617-.004-1.109-.055-.973-.1-1.543-.396-1.543-1.438 0-.128.01-.254.023-.38.14-1.372.292-2.743.437-4.114.22-2.066.225-3.225.662-3.861-1.148.422-1.05 1.548-1.348 4.371Zm3.722 3.546.133.067c.243.1.744.142 1.013.156 1.08.055 1.874-.278 2.434-.847-.472.246-1.05.372-1.749.337-.268-.014-.77-.056-1.012-.156l-.733-.37-.086.813Zm.558-5.407c.04-.002.077-.002.114-.002.889.03 1.126.805 1.126 1.574 0 .595-.082 1.763-.533 2.447 1.064-.23 1.219-2.138 1.219-2.957 0-.769-.238-1.545-1.127-1.575-.215-.005-.476.038-.636.2l-.145.145-.018.168Zm5.526 5.866c-.041.412-.118.893-.118 1.3 0 .958.652 1.177 1.522 1.194.713.014 1.216-.12 1.55-.607-.245.077-.533.103-.864.097-.87-.018-1.522-.236-1.522-1.194 0-.408.076-.888.117-1.3.14-1.39.276-2.782.412-4.172.127-1.3-.004-2.855.666-3.718-1.438.564-1.193 2.597-1.352 4.228-.135 1.39-.272 2.782-.411 4.172Zm10.273.62c.147.945.408 1.58 1.462 1.494.993-.083 1.594-.37 1.958-.806-.329.152-.746.253-1.273.296-.654.055-1.003-.17-1.207-.575l-.01.098-.03-.183c-.103-.233-.163-.514-.212-.831-.2-1.293-.394-2.583-.592-3.873l-.004-.024-.101-.61-1.017.03-.041.491.382-.012.076.509c.204 1.333.404 2.665.61 3.997Zm2.492-9.163c-.539.169-.83.559-.966 1.3-.223 1.221-.066 2.72-.186 4.005l-.135 1.44.411 2.415.41-4.366c.12-1.284-.038-2.783.186-4.005.06-.329.15-.587.28-.79Zm-5.154.086c-2.3.94-2.074 7.254-2.266 9.214-.021.222-.06.49-.06.709 0 .855.43.993 1.227.963.733-.027 1.2-.216 1.491-.642-.223.079-.49.12-.803.132-.8.03-1.228-.108-1.228-.963 0-.219.037-.487.059-.71.17-1.739.013-6.904 1.58-8.703Zm13.904 9.436c.634-.096 1.118-.354 1.457-.738a2.69 2.69 0 0 1-.77.228c-1.353.205-2.71.394-4.068.56-1.11.136-1.458-.465-1.458-1.521 0-2.047 2.53-3.365 3.924-4.56l1.324-1.137-1.736.112c-.748.05-1.939.339-2.61.276-.545-.05-.516-.658-.516-1.098 0-.689.106-1.312.425-1.747-.865.313-1.11 1.208-1.11 2.256 0 .441-.03 1.05.515 1.099.672.063 1.863-.227 2.609-.276l1.737-.112-1.324 1.135c-1.396 1.197-3.923 2.515-3.923 4.562 0 1.056.346 1.657 1.455 1.52 1.36-.167 2.715-.354 4.069-.559Zm-.996-4.203c.326-.24.672-.49 1.013-.751l-.468.345-.545.405Z" clip-rule="evenodd"/></svg>