<svg width="32" height="33" viewBox="0 0 32 33" fill="none" xmlns="http://www.w3.org/2000/svg">
<g id="Twitter">
<g id="Union">
<path d="M15.12 17.0275C15.247 17.1386 15.3393 17.2751 15.3956 17.423L19.6324 23.5025H22.207L12.1636 9.35378L9.77222 9.35378L15.12 17.0275Z" fill="#BFC0C3"/>
<path fill-rule="evenodd" clip-rule="evenodd" d="M15.8596 2.46899L16.1404 2.46899C18.7771 2.46896 20.9491 2.46894 22.6685 2.7001C24.4727 2.94268 26.0629 3.47104 27.3356 4.74376C28.6083 6.01648 29.1367 7.6066 29.3793 9.41089C29.6104 11.1302 29.6104 13.3022 29.6104 15.9389V16.2199C29.6104 18.8565 29.6104 21.0285 29.3793 22.7478C29.1367 24.5521 28.6083 26.1422 27.3356 27.4149C26.0629 28.6877 24.4727 29.216 22.6685 29.4586C20.9491 29.6898 18.7771 29.6897 16.1405 29.6897H15.8595C13.2229 29.6897 11.0509 29.6898 9.33154 29.4586C7.52726 29.216 5.93713 28.6877 4.66442 27.4149C3.3917 26.1422 2.86333 24.5521 2.62075 22.7478C2.38959 21.0285 2.38962 18.8565 2.38965 16.2198L2.38965 15.9389C2.38962 13.3022 2.38959 11.1302 2.62075 9.41089C2.86333 7.6066 3.3917 6.01648 4.66442 4.74376C5.93713 3.47104 7.52726 2.94268 9.33155 2.7001C11.0509 2.46894 13.2229 2.46896 15.8596 2.46899ZM23.2071 9.00006C23.564 8.57861 23.5117 7.94761 23.0903 7.59068C22.6688 7.23375 22.0378 7.28605 21.6809 7.7075L17.2019 12.9962L13.4956 7.77494C13.308 7.51075 13.0041 7.35378 12.6801 7.35378L7.85645 7.35378C7.48395 7.35378 7.14232 7.56083 6.96995 7.89105C6.79758 8.22127 6.82304 8.61992 7.03602 8.92553L13.1814 17.7438L8.03308 23.8228C7.67615 24.2442 7.72846 24.8752 8.14991 25.2321C8.57136 25.5891 9.20236 25.5368 9.55929 25.1153L14.3645 19.4415L18.29 25.0743C18.477 25.3426 18.7834 25.5025 19.1104 25.5025H24.1432C24.5173 25.5025 24.86 25.2938 25.0317 24.9614C25.2033 24.6291 25.1752 24.2287 24.9586 23.9237L18.3969 14.6798L23.2071 9.00006Z" fill="#BFC0C3"/>
</g>
</g>
</svg>
