<svg width="32" height="33" viewBox="0 0 32 33" fill="none" xmlns="http://www.w3.org/2000/svg">
<g id="Instagram">
<path id="Union" fill-rule="evenodd" clip-rule="evenodd" d="M16.0764 2.41266L15.9239 2.41266C13.003 2.41264 10.7087 2.41263 8.91753 2.65345C7.08198 2.90023 5.62564 3.41628 4.48138 4.56054C3.33712 5.70481 2.82107 7.16115 2.57429 8.99669C2.33347 10.7879 2.33348 13.0821 2.3335 16.0031L2.3335 16.1556C2.33348 19.0765 2.33347 21.3707 2.57429 23.162C2.82107 24.9975 3.33712 26.4538 4.48138 27.5981C5.62564 28.7424 7.08198 29.2584 8.91753 29.5052C10.7087 29.746 13.003 29.746 15.9239 29.746H16.0764C18.9974 29.746 21.2916 29.746 23.0828 29.5052C24.9183 29.2584 26.3747 28.7424 27.5189 27.5981C28.6632 26.4538 29.1793 24.9975 29.426 23.162C29.6669 21.3707 29.6668 19.0765 29.6668 16.1555V16.0031C29.6668 13.0821 29.6669 10.7879 29.426 8.99669C29.1793 7.16115 28.6632 5.70481 27.5189 4.56054C26.3747 3.41628 24.9183 2.90023 23.0828 2.65345C21.2916 2.41263 18.9973 2.41264 16.0764 2.41266ZM24.6772 8.75022C24.6772 9.4866 24.0803 10.0836 23.3439 10.0836H23.3319C22.5956 10.0836 21.9986 9.4866 21.9986 8.75022C21.9986 8.01384 22.5956 7.41689 23.3319 7.41689H23.3439C24.0803 7.41689 24.6772 8.01384 24.6772 8.75022ZM11.0002 16.0836C11.0002 13.3221 13.2387 11.0836 16.0002 11.0836C18.7616 11.0836 21.0002 13.3221 21.0002 16.0836C21.0002 18.845 18.7616 21.0836 16.0002 21.0836C13.2387 21.0836 11.0002 18.845 11.0002 16.0836Z" fill="#C2278F"/>
</g>
</svg>
