<svg width="32" height="33" viewBox="0 0 32 33" fill="none" xmlns="http://www.w3.org/2000/svg">
<g id="Facebook">
<path id="union" d="M15.8587 2.37506L16.1408 2.37506C18.7975 2.37503 20.9853 2.375 22.7169 2.60782C24.5337 2.85209 26.1339 3.384 27.4145 4.66459C28.6951 5.94519 29.227 7.54534 29.4713 9.36223C29.7041 11.0939 29.704 13.2816 29.704 15.9383V16.2205C29.704 18.8772 29.7041 21.0649 29.4713 22.7966C29.227 24.6134 28.6951 26.2136 27.4145 27.4942C26.1339 28.7748 24.5337 29.3066 22.7169 29.5509C20.9853 29.7837 18.7975 29.7837 16.1408 29.7837H16.0437L16.0437 20.1555H19.3874C20.1237 20.1555 20.7207 19.5585 20.7207 18.8222C20.7207 18.0858 20.1237 17.4888 19.3874 17.4888H16.0437L16.0437 12.9652C16.0437 12.2289 16.6407 11.6319 17.377 11.6319L20.6849 11.6319C21.4213 11.6319 22.0183 11.0349 22.0183 10.2986C22.0183 9.56218 21.4213 8.96523 20.6849 8.96523H17.377C15.1679 8.96523 13.377 10.7561 13.377 12.9652L13.377 17.4888L12.0254 17.4888C11.289 17.4888 10.6921 18.0858 10.6921 18.8222C10.6921 19.5585 11.289 20.1555 12.0254 20.1555H13.377L13.377 29.7753C11.8053 29.7583 10.4417 29.7067 9.28256 29.5509C7.46569 29.3066 5.86554 28.7748 4.58494 27.4942C3.30437 26.2136 2.77244 24.6134 2.52817 22.7966C2.29535 21.0649 2.29538 18.8772 2.29541 16.2205L2.29541 15.9383C2.29538 13.2816 2.29535 11.0939 2.52817 9.36222C2.77244 7.54532 3.30437 5.94518 4.58494 4.6646C5.86552 3.38401 7.46567 2.85209 9.28257 2.60782C11.0142 2.375 13.202 2.37503 15.8587 2.37506Z" fill="#3F70B1"/>
</g>
</svg>
