<svg width="32" height="33" viewBox="0 0 32 33" fill="none" xmlns="http://www.w3.org/2000/svg">
<g id="Telegram">
<path id="Union" d="M19.6053 26.2586L19.6053 26.2586L16.0587 22.2264C14.303 20.2302 14.0951 19.353 14.2106 19.1639L15.5417 18.0918L20.9368 13.8719C21.3718 13.5316 21.4486 12.9032 21.1083 12.4681C20.7681 12.0331 20.1396 11.9563 19.7046 12.2966L14.3038 16.5208L12.6797 17.8465C12.3006 18.2534 12.0587 18.9492 12.3225 19.9388C12.5686 20.8623 13.2589 22.0828 14.7287 23.7585L14.1858 24.829C13.8352 25.3163 13.5097 25.7688 13.2101 26.079C12.9124 26.3871 12.3715 26.84 11.6182 26.6902C10.8747 26.5422 10.5411 25.9276 10.3759 25.5332C10.2081 25.1326 10.066 24.5893 9.91187 23.9998L9.24319 21.4445C8.87179 20.0252 8.74353 19.6173 8.50185 19.317C8.47134 19.2791 8.43958 19.2425 8.40662 19.2072C8.15146 18.934 7.79111 18.7658 6.47117 18.2367L6.39887 18.2078C5.09807 17.6864 4.02659 17.2569 3.27714 16.835C2.55109 16.4262 1.76704 15.8318 1.67684 14.8291C1.66282 14.6732 1.66306 14.5164 1.67756 14.3606C1.77084 13.358 2.55684 12.7662 3.28417 12.3598C4.03493 11.9404 5.10775 11.5144 6.41014 10.9974L22.3889 4.65337C24.0234 4.0044 25.3599 3.47374 26.41 3.2318C27.4806 2.98514 28.5867 2.95903 29.4533 3.76069C30.3029 4.54653 30.4046 5.65358 30.2987 6.76931C30.1937 7.87628 29.8483 9.3159 29.4223 11.0917L26.1961 24.5411L26.1961 24.5412C25.9246 25.6732 25.6954 26.6288 25.4206 27.3222C25.1429 28.0226 24.6975 28.7749 23.7978 29.0128C22.887 29.2536 22.1344 28.8046 21.5624 28.3206C21.0005 27.8451 20.3597 27.1165 19.6053 26.2586Z" fill="#26A4E3"/>
</g>
</svg>
